<?xml version="1.0" encoding="utf-8"?>
<!-- Generator: Adobe Illustrator 16.0.4, SVG Export Plug-In . SVG Version: 6.00 Build 0)  -->
<!DOCTYPE svg PUBLIC "-//W3C//DTD SVG 1.1//EN" "http://www.w3.org/Graphics/SVG/1.1/DTD/svg11.dtd">
<svg version="1.1" id="Layer_1" xmlns="http://www.w3.org/2000/svg" xmlns:xlink="http://www.w3.org/1999/xlink" x="0px" y="0px"
	 width="500px" height="500px" viewBox="0 0 500 500" enable-background="new 0 0 500 500" xml:space="preserve">
<path fill="#639E42" d="M250,494.67C115.06,494.67,5.33,384.94,5.33,250C5.33,115.06,115.06,5.33,250,5.33
	c134.94,0,244.67,109.73,244.67,244.67C494.67,384.94,384.94,494.67,250,494.67L250,494.67z M250,13.48
	c-130.49,0-237.26,106.02-237.26,237.26S118.77,488,250,488c130.49,0,237.26-106.02,237.26-237.26S380.49,13.48,250,13.48L250,13.48
	z"/>
<path fill="#639E42" d="M230,490.5l-0.22-136.65l36.31,30.23l74.28-40.52c11.38-6.2,15.59-20.46,9.39-31.87
	c-6.21-11.36-20.45-15.55-31.85-9.37l-46.57,25.36c-12.55-10.43-29.86-24.81-39.62-32.94c-15.72-13.05-30.5-20.71-53.63-20.71
	c-35.43,0-52.28,12.21-52.28,27.4V456.5l48.08,22.54L230,490.5z"/>
<path fill="#639E42" d="M343.35,161.52c-35.22,0-63.77,28.54-63.77,63.76c0,35.2,28.56,63.74,63.77,63.74
	c35.2,0,63.75-28.54,63.75-63.74C407.1,190.06,378.55,161.52,343.35,161.52 M364.75,193.88h11.19v19.37h-11.19V193.88z
	 M346.73,193.88h11.2v19.37h-11.2V193.88z M344.82,218.94c4.97,0,9,4.02,9,9c0,1.63-0.48,3.17-1.25,4.5l6.22,20.73l-14.4-16.28
	c-4.78-0.24-8.58-4.13-8.58-8.96C335.81,222.96,339.84,218.94,344.82,218.94 M328.74,193.88h11.18v19.37h-11.18V193.88z
	 M310.73,193.88h11.2v19.37h-11.2V193.88z M343.34,269.49c-23.74,0-43.18-19.29-43.36-43.02l6.93-0.05
	c0.15,19.92,16.49,36.14,36.43,36.14c19.93,0,36.26-16.22,36.42-36.14l6.93,0.05C386.52,250.2,367.07,269.49,343.34,269.49"/>
<path fill="#639E42" d="M260.27,154.88c-1.19-5.36-6.62-9.01-12.05-8.11l-13.2,2.22c-13.6-25.25-41.55-40.98-71.76-37.49
	c-39.55,4.58-67.92,40.35-63.37,79.9l161.31-23.73c0.8-1.81,1.06-3.87,0.58-5.97L260.27,154.88z"/>
<path fill="#639E42" d="M117.18,195.87c-0.38,2.67-0.65,5.4-0.65,8.18c0,31.81,25.66,57.36,57.35,57.36
	c31.69,0,57.32-25.55,57.32-57.36c0-8.66-1.95-16.83-5.36-24.17L117.18,195.87z"/>
</svg>
